<?xml version="1.0" standalone="no"?>
<!DOCTYPE svg PUBLIC "-//W3C//DTD SVG 20010904//EN"
 "http://www.w3.org/TR/2001/REC-SVG-20010904/DTD/svg10.dtd">
<svg version="1.0" xmlns="http://www.w3.org/2000/svg"
 width="512.000000pt" height="512.000000pt" viewBox="0 0 512.000000 512.000000"
 preserveAspectRatio="xMidYMid meet">
<g transform="translate(0.000000,512.000000) scale(0.100000,-0.100000)"
fill="#000000" stroke="none">
<path d="M1329 3307 c-46 -17 -166 -84 -174 -97 -10 -15 4 -12 101 25 111 42
171 50 248 36 88 -16 161 -54 219 -114 100 -102 150 -234 149 -397 0 -145 -31
-255 -105 -379 l-32 -53 -85 7 c-216 17 -618 113 -1125 269 -62 19 -65 19 -65
1 0 -9 24 -21 68 -34 688 -197 743 -210 1122 -268 l55 -9 -45 -42 c-25 -24
-83 -62 -129 -85 -83 -41 -86 -42 -190 -42 -128 0 -181 20 -279 103 -35 30
-67 51 -70 47 -4 -4 27 -39 69 -80 88 -84 152 -114 264 -122 140 -11 273 41
394 153 l70 65 141 6 140 5 0 -51 0 -52 141 3 141 3 32 79 31 78 90 24 c50 12
140 38 200 57 61 19 111 33 112 32 2 -1 -6 -55 -17 -121 -11 -65 -20 -127 -20
-136 0 -16 12 -18 124 -18 120 0 124 1 129 22 3 13 15 91 27 173 12 83 27 155
34 162 11 11 236 76 309 89 21 3 37 2 37 -3 0 -8 -49 -313 -65 -411 l-6 -33
128 3 128 3 38 245 c21 135 40 246 42 248 1 1 70 5 152 9 l150 6 -38 -234
c-21 -129 -39 -244 -39 -256 l0 -23 213 0 214 0 12 83 c7 45 15 94 18 110 l6
27 -90 0 -89 0 22 131 c12 72 24 132 26 134 2 2 34 -1 71 -7 54 -9 67 -14 67
-29 0 -29 29 -82 57 -103 13 -10 42 -20 64 -23 55 -8 114 31 130 86 16 52 8
78 -41 130 -35 38 -47 44 -81 44 -48 0 -87 -26 -111 -74 -10 -19 -18 -29 -18
-22 0 6 -31 17 -70 24 -63 11 -69 14 -65 33 10 43 45 272 45 294 0 22 -2 22
-123 22 l-124 0 -16 -92 c-9 -51 -19 -118 -22 -149 -4 -31 -10 -60 -13 -66 -4
-5 -74 -13 -156 -17 l-149 -6 7 37 c3 21 6 43 6 50 0 8 24 13 73 15 l72 3 17
95 c9 52 17 103 17 113 1 16 -18 17 -268 17 l-268 0 -17 -107 c-9 -60 -16
-111 -16 -115 0 -5 32 -8 71 -8 l71 0 -6 -32 c-3 -18 -8 -52 -12 -75 -6 -39
-8 -41 -48 -47 -22 -4 -103 -24 -178 -45 -132 -36 -137 -37 -133 -17 2 12 9
55 15 96 19 131 11 120 90 120 39 0 70 1 70 3 16 85 35 219 32 222 -3 3 -123
5 -268 5 l-262 0 -6 -27 c-11 -53 -26 -158 -26 -180 0 -22 4 -23 68 -23 l68 0
-25 -160 -25 -160 -96 -29 c-165 -51 -290 -85 -295 -79 -3 3 51 150 120 326
69 177 125 324 125 327 0 3 -56 5 -124 5 l-125 0 -25 -82 c-15 -46 -51 -159
-80 -253 l-55 -170 -3 250 -3 250 -114 3 c-63 1 -120 1 -126 -2 -8 -3 -4 -91
12 -307 12 -167 22 -329 22 -360 l1 -56 -92 -7 c-50 -3 -106 -6 -124 -6 l-33
0 45 84 c24 45 53 119 65 162 27 101 29 252 6 344 -43 164 -152 307 -283 371
-63 30 -79 33 -174 36 -70 2 -117 -1 -141 -10z m3281 -583 c11 -12 10 -18 -3
-32 -16 -15 -18 -15 -33 0 -19 18 -12 48 9 48 8 0 20 -7 27 -16z"/>
<path d="M1121 2018 c-5 -13 -27 -72 -49 -133 -23 -60 -59 -159 -82 -219 -22
-60 -39 -110 -38 -111 2 -1 42 -16 89 -34 88 -32 119 -38 119 -22 0 5 3 16 6
24 4 11 -13 22 -65 42 -68 27 -69 28 -59 54 38 98 104 287 119 340 15 51 16
67 6 73 -21 14 -37 9 -46 -14z"/>
<path d="M3927 2028 c-53 -19 -44 -98 13 -98 44 0 60 10 60 36 0 19 -5 24 -25
24 -16 0 -25 -6 -25 -15 0 -8 5 -15 12 -15 6 0 9 -3 5 -6 -10 -10 -47 7 -47
21 0 19 28 34 51 28 24 -7 25 13 2 25 -11 6 -29 6 -46 0z"/>
<path d="M2093 1980 c11 -27 25 -50 29 -50 7 0 48 82 48 96 0 2 -7 4 -15 4 -8
0 -18 -12 -21 -26 l-7 -27 -14 27 c-7 14 -20 26 -27 26 -11 0 -10 -11 7 -50z"/>
<path d="M2180 1980 l0 -50 50 0 c28 0 50 5 50 10 0 6 9 10 20 10 11 0 20 -4
20 -10 0 -5 14 -10 30 -10 17 0 30 5 30 10 0 6 9 10 19 10 11 0 23 -4 26 -10
10 -17 52 -11 60 8 6 16 7 16 16 0 13 -24 24 -23 37 5 l11 22 0 -22 c1 -14 7
-23 16 -23 18 0 18 0 4 56 -13 51 -21 55 -38 17 l-13 -28 -14 28 c-21 38 -29
34 -40 -20 l-10 -48 -22 48 c-12 26 -25 47 -30 47 -5 0 -17 -18 -27 -40 -10
-22 -21 -40 -25 -40 -4 0 -15 18 -25 40 -10 22 -21 40 -24 40 -3 0 -15 -17
-26 -38 -12 -23 -29 -38 -42 -40 -21 -3 -23 1 -23 37 0 30 -4 41 -15 41 -11 0
-15 -12 -15 -50z"/>
<path d="M2596 2013 c-5 -13 1 -25 21 -41 l28 -23 -29 7 c-22 5 -28 4 -24 -7
3 -8 18 -14 34 -14 38 0 45 31 13 57 l-24 19 24 -6 c17 -5 22 -4 19 6 -7 22
-54 23 -62 2z"/>
<path d="M2680 1980 l0 -50 35 0 c19 0 35 5 35 10 0 6 -9 10 -20 10 -11 0 -20
5 -20 10 0 6 9 10 21 10 12 0 19 5 16 13 -2 6 -12 11 -21 11 -9 -1 -16 2 -16
7 0 5 9 9 20 9 11 0 20 5 20 10 0 6 -16 10 -35 10 l-35 0 0 -50z"/>
<path d="M2800 2020 c0 -5 7 -10 15 -10 11 0 15 -11 15 -40 0 -22 5 -40 10
-40 6 0 10 18 10 40 0 29 4 40 15 40 8 0 15 5 15 10 0 6 -18 10 -40 10 -22 0
-40 -4 -40 -10z"/>
<path d="M2892 1985 c-26 -54 -26 -55 -7 -55 8 0 15 5 15 10 0 6 9 10 20 10
11 0 20 -4 20 -10 0 -5 7 -10 15 -10 8 0 15 2 15 5 0 12 -43 95 -49 95 -4 0
-17 -20 -29 -45z"/>
<path d="M2980 1980 c0 -38 4 -50 15 -50 8 0 15 9 15 20 0 13 7 20 20 20 27 0
25 18 -2 30 l-23 9 23 0 c37 1 25 21 -13 21 l-35 0 0 -50z"/>
<path d="M3070 1980 c0 -49 1 -50 29 -50 17 0 33 5 36 10 3 6 -3 10 -14 10
-27 0 -36 18 -11 22 22 3 24 23 3 23 -6 0 -15 4 -19 8 -4 4 5 7 20 7 16 0 25
4 21 10 -3 6 -19 10 -36 10 -28 0 -29 -1 -29 -50z"/>
<path d="M3150 1980 l0 -50 35 0 c19 0 35 5 35 10 0 6 -9 10 -20 10 -17 0 -20
7 -20 40 0 29 -4 40 -15 40 -11 0 -15 -12 -15 -50z"/>
<path d="M3210 2020 c0 -5 7 -10 15 -10 11 0 15 -11 15 -40 0 -22 5 -40 10
-40 6 0 10 18 10 40 0 29 4 40 15 40 8 0 15 5 15 10 0 6 -18 10 -40 10 -22 0
-40 -4 -40 -10z"/>
<path d="M3300 1980 l0 -50 35 0 c19 0 35 5 35 10 0 6 -9 10 -20 10 -11 0 -20
5 -20 10 0 6 9 10 21 10 12 0 19 5 16 13 -2 6 -12 11 -21 11 -9 -1 -16 2 -16
7 0 5 9 9 20 9 11 0 20 5 20 10 0 6 -16 10 -35 10 l-35 0 0 -50z"/>
<path d="M3390 1980 c0 -27 5 -50 10 -50 6 0 10 11 10 26 l0 25 33 -25 c19
-15 37 -26 40 -26 4 0 7 23 7 50 0 38 -4 50 -15 50 -10 0 -15 -10 -15 -27 l0
-27 -28 27 c-15 15 -31 27 -35 27 -4 0 -7 -22 -7 -50z"/>
<path d="M3510 1980 c0 -38 4 -50 15 -50 10 0 15 10 15 27 l0 27 28 -27 c15
-15 31 -27 35 -27 4 0 7 23 7 50 0 38 -4 50 -15 50 -10 0 -15 -10 -15 -27 l0
-27 -28 27 c-15 15 -31 27 -35 27 -4 0 -7 -22 -7 -50z"/>
<path d="M3630 1980 c0 -38 4 -50 15 -50 11 0 15 12 15 50 0 38 -4 50 -15 50
-11 0 -15 -12 -15 -50z"/>
<path d="M3683 2014 c-4 -11 1 -23 15 -35 28 -22 28 -32 1 -24 -16 5 -20 3
-17 -6 3 -8 18 -14 34 -14 23 0 30 5 32 23 3 17 -2 25 -17 29 -23 6 -29 22 -8
19 6 0 13 4 15 9 5 18 -48 18 -55 -1z"/>
<path d="M3770 1980 c0 -49 1 -50 30 -50 17 0 30 5 30 10 0 6 -7 10 -15 10
-11 0 -15 11 -15 40 0 29 -4 40 -15 40 -11 0 -15 -12 -15 -50z"/>
<path d="M3846 1999 c-10 -49 -7 -69 8 -69 23 0 28 17 21 60 -8 48 -20 51 -29
9z"/>
<path d="M4032 1991 c-26 -46 -28 -61 -7 -61 8 0 15 5 15 10 0 6 9 10 20 10
11 0 20 -4 20 -10 0 -5 7 -10 15 -10 8 0 15 4 15 9 0 13 -43 91 -50 91 -3 0
-16 -17 -28 -39z"/>
<path d="M4150 1985 c0 -2 5 -16 12 -30 14 -31 31 -32 47 -2 l11 22 -6 -22
c-5 -20 -2 -23 25 -23 17 0 31 5 31 10 0 6 -5 10 -11 10 -5 0 -7 5 -3 12 5 8
10 5 17 -9 6 -13 19 -20 38 -21 23 0 30 5 35 24 7 28 -3 45 -15 25 -7 -11 -10
-11 -14 0 -4 12 -7 11 -16 -1 -7 -10 -11 -11 -11 -2 0 8 -17 12 -50 12 -32 0
-50 -4 -50 -12 0 -9 -3 -9 -12 0 -12 12 -28 16 -28 7z"/>
</g>
</svg>
